<svg xmlns="http://www.w3.org/2000/svg" viewBox="0 0 238.1 155.9"><path d="M118.8 156.4H14c-6.1 0-10.9-2.2-13.6-7.8-1-2-1.5-4.7-1.5-7.1l-.1-127c0-9 7-15 15.2-15h209.7c8.4 0 15.4 6 15.4 15.4-.2 42-.2 84.1 0 126.2 0 9.4-7 15.5-15.4 15.4-35-.2-70-.1-104.8-.1zm.1-9.2h103.8c5.6 0 7-1.4 7-6.8V15.6c0-5.4-1.4-6.9-7-6.9H15.2c-5.6 0-7 1.5-7 7v124.6c0 5.5 1.4 7 7 7h103.8z"/><path d="M19.7 26.6l4.5-7.9 2.4 1.2 88.2 50.4c3 1.8 5.5 1.7 8.5 0l88.5-50.7 1.9-1 4.6 8c-1 .5-2 1-2.8 1.6-29 16.5-58 33-86.8 49.7-6.7 3.8-12.7 3.9-19.4 0C80.8 61.4 52 45 23.5 28.9l-3.8-2.3zM94.5 80.6l4.6 8-74.9 42.8-4.6-8 75-42.8zM218.2 123.3l-4.6 8L140.9 90l4.6-8 72.7 41.4z"/></svg>